#!OML:ASF H:\Dans Jumps\Project 1\Capture day 1\Session 1\subject.ASF
:FULLY-SPECIFIED
:DEGREES
355
root 0.526946 16.1716 -14.4309 26.9148 1.28843 -2.2019
lowerback 15.7788 -0.100717 0.134564
upperback 6.53348 -0.0187729 2.74498
thorax -1.91078 -0.0426831 2.80803
lowerneck -16.3099 0.515724 -1.48084
upperneck 6.9332 1.25398 -2.23321
head 4.72201 0.420909 -0.352443
rclavicle 5.1684e-015 5.92378e-014
rhumerus -24.3744 -18.1832 -76.2525
rradius 25.5133
rwrist 32.3991
rhand -17.7196 -24.6587
rfingers 7.12502
rthumb 8.54099 -54.466
lclavicle 5.1684e-015 5.92378e-014
lhumerus -22.2827 4.34234 84.4342
lradius 17.6619
lwrist 7.40188
lhand -25.3585 -4.40142
lfingers 7.12502
lthumb 1.1653 25.5751
rfemur -56.0407 -0.984437 22.0354
rtibia 56.4096
rfoot -32.1967 -13.3818
rtoes -1.39311
lfemur -56.2498 6.07101 -18.6491
ltibia 55.8104
lfoot -27.3401 19.6293
ltoes -16.123
356
root 0.518997 16.1645 -14.3524 26.9405 1.32658 -2.19847
lowerback 15.7436 -0.0982231 0.131685
upperback 6.4911 -0.0155617 2.73947
thorax -1.93712 -0.0405253 2.80313
lowerneck -16.3219 0.511576 -1.47774
upperneck 6.91426 1.24928 -2.24858
head 4.71813 0.41783 -0.358147
rclavicle 1.19271e-015 2.0276e-014
rhumerus -24.31 -18.1371 -76.2767
rradius 25.5086
rwrist 32.3625
rhand -17.706 -24.6739
rfingers 7.12502
rthumb 8.55405 -54.4806
lclavicle 1.19271e-015 2.0276e-014
lhumerus -22.2933 4.65395 84.3534
lradius 17.5701
lwrist 7.29464
lhand -25.3805 -4.32621
lfingers 7.12502
lthumb 1.14409 25.6505
rfemur -55.7994 -0.990884 22.0738
rtibia 56.5174
rfoot -32.3669 -13.5063
rtoes -1.38619
lfemur -56.0066 5.99005 -18.5494
ltibia 55.9169
lfoot -27.497 19.6861
ltoes -16.0536
357
root 0.511073 16.1554 -14.2715 26.9709 1.35668 -2.19417
lowerback 15.7048 -0.0956505 0.122798
upperback 6.44367 -0.0131427 2.73174
thorax -1.96684 -0.0387685 2.79943
lowerneck -16.3502 0.506641 -1.47106
upperneck 6.91195 1.24345 -2.26291
head 4.72204 0.414012 -0.36416
rclavicle -7.15625e-015 -1.37161e-014
rhumerus -24.2444 -18.1315 -76.2931
rradius 25.4813
rwrist 32.3511
rhand -17.6819 -24.6886
rfingers 7.12502
rthumb 8.57732 -54.4943
lclavicle -7.15625e-015 -1.37161e-014
lhumerus -22.3151 5.00904 84.2594
lradius 17.4567
lwrist 7.1452
lhand -25.4225 -4.28102
lfingers 7.12502
lthumb 1.10354 25.6959
rfemur -55.5689 -0.995222 22.1102
rtibia 56.6497
rfoot -32.524 -13.6289
rtoes -1.37311
lfemur -55.7719 5.91111 -18.453
ltibia 56.0507
lfoot -27.6509 19.7476
ltoes -16.0099
358
root 0.503202 16.1436 -14.1885 27.0144 1.37893 -2.19505
lowerback 15.6533 -0.0922738 0.112599
upperback 6.38914 -0.00992084 2.7247
thorax -1.9974 -0.0365977 2.79698
lowerneck -16.3828 0.499702 -1.47099
upperneck 6.91603 1.23571 -2.269
head 4.72852 0.409498 -0.366697
rclavicle -1.78906e-015 -1.39149e-014
rhumerus -24.1746 -18.1511 -76.3047
rradius 25.434
rwrist 32.3543
rhand -17.6646 -24.707
rfingers 7.12502
rthumb 8.59397 -54.5121
lclavicle -1.78906e-015 -1.39149e-014
lhumerus -22.3434 5.41302 84.1524
lradius 17.3157
lwrist 6.93966
lhand -25.4765 -4.28241
lfingers 7.12502
lthumb 1.05136 25.6947
rfemur -55.3625 -0.993963 22.1505
rtibia 56.8104
rfoot -32.667 -13.7466
rtoes -1.33971
lfemur -55.5605 5.83487 -18.3536
ltibia 56.2167
lfoot -27.789 19.8165
ltoes -15.9793
359
root 0.495464 16.1291 -14.1037 27.0594 1.39446 -2.20486
lowerback 15.6015 -0.0875008 0.10722
upperback 6.33085 -0.00410843 2.71904
thorax -2.03183 -0.0330653 2.79282
lowerneck -16.4207 0.490299 -1.48124
upperneck 6.9285 1.22616 -2.26553
head 4.73832 0.404297 -0.364737
rclavicle 7.35503e-015 2.06736e-014
rhumerus -24.0968 -18.1888 -76.3149
rradius 25.3654
rwrist 32.3659
rhand -17.6549 -24.7374
rfingers 7.12502
rthumb 8.6034 -54.5421
lclavicle 7.35503e-015 2.06736e-014
lhumerus -22.3744 5.87367 84.0317
lradius 17.15
lwrist 6.66457
lhand -25.5105 -4.2756
lfingers 7.12502
lthumb 1.01856 25.7017
rfemur -55.1671 -0.986593 22.1985
rtibia 57.0008
rfoot -32.7975 -13.8673
rtoes -1.28846
lfemur -55.3616 5.76521 -18.247
ltibia 56.4171
lfoot -27.9215 19.8833
ltoes -15.9458
360
root 0.487893 16.1115 -14.0169 27.1139 1.3994 -2.22475
lowerback 15.5441 -0.0807259 0.102458
upperback 6.26513 0.00451945 2.71605
thorax -2.0712 -0.0281054 2.79064
lowerneck -16.4708 0.481151 -1.49793
upperneck 6.95333 1.21816 -2.25474
head 4.75383 0.399903 -0.3593
rclavicle -7.95139e-016 1.8487e-014
rhumerus -24.0074 -18.2365 -76.3244
rradius 25.2714
rwrist 32.3898
rhand -17.6634 -24.7786
rfingers 7.12502
rthumb 8.59522 -54.5836
lclavicle -7.95139e-016 1.8487e-014
lhumerus -22.411 6.39176 83.8969
lradius 16.957
lwrist 6.32407
lhand -25.5471 -4.32507
lfingers 7.12502
lthumb 0.983177 25.6524
rfemur -54.9942 -0.971141 22.2547
rtibia 57.2236
rfoot -32.9149 -13.9913
rtoes -1.20044
lfemur -55.1873 5.70551 -18.1347
ltibia 56.6548
lfoot -28.0351 19.9485
ltoes -15.8988
361
root 0.480409 16.0907 -13.9292 27.1669 1.4024 -2.25937
lowerback 15.4956 -0.0705388 0.11235
upperback 6.19208 0.0200876 2.71713
thorax -2.12337 -0.0194724 2.78337
lowerneck -16.515 0.474326 -1.52516
upperneck 6.9868 1.2154 -2.24182
head 4.77107 0.397846 -0.351053
rclavicle -1.19271e-015 1.86858e-014
rhumerus -23.9198 -18.2601 -76.338
rradius 25.1768
rwrist 32.381
rhand -17.6838 -24.8624
rfingers 7.12502
rthumb 8.57554 -54.6683
lclavicle -1.19271e-015 1.86858e-014
lhumerus -22.4425 6.95118 83.7542
lradius 16.7333
lwrist 5.93953
lhand -25.531 -4.31809
lfingers 7.12502
lthumb 0.998689 25.6593
rfemur -54.8338 -0.950618 22.3265
rtibia 57.4796
rfoot -33.0159 -14.13
rtoes -1.09463
lfemur -55.0311 5.65179 -18.0074
ltibia 56.9313
lfoot -28.1245 20.0074
ltoes -15.8521
362
root 0.473206 16.0669 -13.8395 27.2218 1.39724 -2.30246
lowerback 15.4518 -0.0595713 0.126132
upperback 6.1111 0.0375059 2.71965
thorax -2.18645 -0.00980502 2.77519
lowerneck -16.5733 0.470355 -1.55181
upperneck 7.03672 1.21739 -2.23116
head 4.79576 0.397639 -0.34316
rclavicle -1.59028e-015 -1.05356e-014
rhumerus -23.8154 -18.292 -76.3551
rradius 25.0523
rwrist 32.3851
rhand -17.7216 -24.9641
rfingers 7.12502
rthumb 8.53902 -54.7714
lclavicle -1.59028e-015 -1.05356e-014
lhumerus -22.4697 7.57529 83.5956
lradius 16.4782
lwrist 5.49147
lhand -25.5073 -4.32718
lfingers 7.12502
lthumb 1.02161 25.6501
rfemur -54.6852 -0.92611 22.4053
rtibia 57.7686
rfoot -33.102 -14.29
rtoes -0.979442
lfemur -54.8904 5.6099 -17.8767
ltibia 57.246
lfoot -28.1884 20.0578
ltoes -15.7874
363
root 0.466109 16.04 -13.7479 27.2861 1.38312 -2.35659
lowerback 15.4095 -0.0439629 0.144367
upperback 6.0176 0.0619432 2.72381
thorax -2.2638 0.00349146 2.76509
lowerneck -16.6572 0.469258 -1.56385
upperneck 7.11526 1.22285 -2.23267
head 4.83369 0.398099 -0.34105
rclavicle -1.78906e-015 1.47101e-014
rhumerus -23.699 -18.3457 -76.3697
rradius 24.8993
rwrist 32.408
rhand -17.7711 -25.0788
rfingers 7.12502
rthumb 8.49128 -54.8881
lclavicle -1.78906e-015 1.47101e-014
lhumerus -22.4861 8.24584 83.4243
lradius 16.1862
lwrist 4.98578
lhand -25.4751 -4.3448
lfingers 7.12502
lthumb 1.05273 25.6324
rfemur -54.5577 -0.895736 22.4942
rtibia 58.0914
rfoot -33.1641 -14.4882
rtoes -0.904808
lfemur -54.7754 5.58607 -17.7424
ltibia 57.6005
lfoot -28.2261 20.0996
ltoes -15.7004
364
root 0.459058 16.01 -13.6545 27.3608 1.36047 -2.4201
lowerback 15.3678 -0.023349 0.1644
upperback 5.908 0.0936343 2.73061
thorax -2.35875 0.020528 2.75557
lowerneck -16.7481 0.469384 -1.56634
upperneck 7.20982 1.22977 -2.24547
head 4.87794 0.39846 -0.343855
rclavicle 5.76476e-015 -1.41137e-014
rhumerus -23.5768 -18.4193 -76.3786
rradius 24.7239
rwrist 32.4459
rhand -17.8311 -25.2105
rfingers 7.12502
rthumb 8.43333 -55.0222
lclavicle 5.76476e-015 -1.41137e-014
lhumerus -22.4878 8.97338 83.2383
lradius 15.8494
lwrist 4.38661
lhand -25.4247 -4.38777
lfingers 7.12502
lthumb 1.10134 25.5891
rfemur -54.4514 -0.86003 22.5918
rtibia 58.4477
rfoot -33.2126 -14.732
rtoes -0.90139
lfemur -54.6838 5.58295 -17.6069
ltibia 57.9951
lfoot -28.2547 20.1363
ltoes -15.5696
365
root 0.451859 15.977 -13.5592 27.4478 1.32495 -2.48927
lowerback 15.3258 0.00502378 0.180395
upperback 5.78205 0.135243 2.73724
thorax -2.47115 0.0425788 2.74653
lowerneck -16.8555 0.470171 -1.55697
upperneck 7.32717 1.23711 -2.2677
head 4.93215 0.398227 -0.351445
rclavicle 1.19271e-015 2.40529e-014
rhumerus -23.4515 -18.5284 -76.3797
rradius 24.5347
rwrist 32.5038
rhand -17.8917 -25.3321
rfingers 7.12502
rthumb 8.37488 -55.1461
lclavicle 1.19271e-015 2.40529e-014
lhumerus -22.4709 9.75046 83.036
lradius 15.4691
lwrist 3.65129
lhand -25.3635 -4.43753
lfingers 7.12502
lthumb 1.1605 25.5391
rfemur -54.3688 -0.817733 22.6944
rtibia 58.8376
rfoot -33.2599 -15.0174
rtoes -0.959774
lfemur -54.6161 5.60831 -17.4789
ltibia 58.4298
lfoot -28.2797 20.1942
ltoes -15.4268
366
root 0.444453 15.9411 -13.4622 27.5543 1.27569 -2.56522
lowerback 15.281 0.0435248 0.191543
upperback 5.63505 0.189897 2.74532
thorax -2.60482 0.0712189 2.73958
lowerneck -16.9771 0.471048 -1.53759
upperneck 7.46516 1.2444 -2.29957
head 4.9953 0.397145 -0.363649
rclavicle 3.97569e-016 1.23246e-014
rhumerus -23.3268 -18.6856 -76.3662
rradius 24.3398
rwrist 32.5839
rhand -17.9417 -25.4274
rfingers 7.12502
rthumb 8.32662 -55.2433
lclavicle 3.97569e-016 1.23246e-014
lhumerus -22.4327 10.6036 82.8102
lradius 15.0411
lwrist 2.71413
lhand -25.2875 -4.52861
lfingers 7.12502
lthumb 1.23387 25.4476
rfemur -54.3174 -0.766131 22.8039
rtibia 59.2591
rfoot -33.3202 -15.3419
rtoes -1.06069
lfemur -54.5799 5.66567 -17.359
ltibia 58.9043
lfoot -28.3114 20.2833
ltoes -15.2799
367
root 0.436889 15.9026 -13.3634 27.6748 1.21642 -2.64961
lowerback 15.2389 0.0902874 0.203434
upperback 5.46782 0.256075 2.75475
thorax -2.76174 0.105751 2.73168
lowerneck -17.117 0.468625 -1.51949
upperneck 7.62692 1.24835 -2.32863
head 5.06887 0.394061 -0.375054
rclavicle 3.18055e-015 -5.96354e-015
rhumerus -23.2106 -18.8795 -76.341
rradius 24.1597
rwrist 32.6637
rhand -17.9679 -25.4841
rfingers 7.12502
rthumb 8.30129 -55.301
lclavicle 3.18055e-015 -5.96354e-015
lhumerus -22.3753 11.5724 82.5468
lradius 14.5703
lwrist 1.50931
lhand -25.2039 -4.64032
lfingers 7.12502
lthumb 1.31466 25.3354
rfemur -54.1956 -0.704945 22.9217
rtibia 59.458
rfoot -33.2563 -15.6527
rtoes -1.14077
lfemur -54.4765 5.7586 -17.246
ltibia 59.1602
lfoot -28.2095 20.3329
ltoes -15.1287
368
root 0.429215 15.8621 -13.2627 27.8071 1.14324 -2.73977
lowerback 15.2056 0.146825 0.209456
upperback 5.27905 0.335034 2.76673
thorax -2.94658 0.146769 2.72763
lowerneck -17.2819 0.464216 -1.50627
upperneck 7.81673 1.25153 -2.3524
head 5.15528 0.390186 -0.384071
rclavicle 1.03368e-014 5.50634e-014
rhumerus -23.1091 -19.0848 -76.3063
rradius 24.0208
rwrist 32.6999
rhand -17.9547 -25.507
rfingers 7.12502
rthumb 8.31404 -55.3234
lclavicle 1.03368e-014 5.50634e-014
lhumerus -22.3078 12.6965 82.234
lradius 14.0636
lwrist 0.00728905
lhand -25.1317 -4.82748
lfingers 7.12502
lthumb 1.38434 25.1478
rfemur -54.0863 -0.630888 23.0439
rtibia 59.678
rfoot -33.2385 -15.9742
rtoes -1.18887
lfemur -54.3895 5.8899 -17.1445
ltibia 59.4496
lfoot -28.1424 20.4087
ltoes -14.9743
